<svg width="56" height="28" viewBox="0 0 56 28" fill="none" xmlns="http://www.w3.org/2000/svg">
<rect width="56" height="28" rx="14" fill="#3C70BC"/>
<path d="M22.0254 12.304V11.488H20.4294V9.124H19.4454V14.716H20.4294V12.304H22.0254ZM18.7254 13.972L18.6654 13.264C18.1494 13.324 17.6334 13.36 17.0934 13.396V10.624H18.1614V9.844H12.4134V10.624H13.4694V13.528H12.1134L12.2094 14.344C14.0694 14.344 16.5894 14.32 18.7254 13.972ZM14.4294 13.504V10.624H16.1454V13.456C15.5694 13.492 14.9934 13.492 14.4294 13.504ZM20.8254 18.988H14.5854V17.812H20.4294V15.232H13.5894V16H19.4574V17.08H13.6254V19.768H20.8254V18.988ZM32.8845 18.556V17.752H28.4805V15.724H31.9245V14.932H25.3005V13.192H31.6725V9.916H24.3045V10.72H30.7125V12.4H24.3285V15.724H27.4845V17.752H23.1045V18.556H32.8845ZM39.0035 14.272C41.2475 14.272 42.7715 13.348 42.7715 11.908C42.7715 10.48 41.2475 9.556 39.0035 9.556C36.7595 9.556 35.2475 10.48 35.2475 11.908C35.2475 13.348 36.7595 14.272 39.0035 14.272ZM39.0035 10.348C40.6475 10.348 41.7635 10.948 41.7635 11.908C41.7635 12.868 40.6475 13.48 39.0035 13.48C37.3715 13.48 36.2555 12.868 36.2555 11.908C36.2555 10.948 37.3715 10.348 39.0035 10.348ZM39.4955 16.108H43.8995V15.292H34.1555V16.108H38.5115V19.9H39.4955V16.108Z" fill="white"/>
</svg>
