<svg width="24" height="24" viewBox="0 0 24 24" fill="none" xmlns="http://www.w3.org/2000/svg">
<path d="M21 12.2067C21 11.6014 20.9464 11.0267 20.8544 10.4673H12.1954V13.9232H17.1533C16.9311 15.0573 16.2797 16.0152 15.3142 16.6665V18.9654H18.2721C20.0039 17.3638 21 15.0037 21 12.2067Z" fill="#4285F4"/>
<path d="M12.1954 21.1955C14.6782 21.1955 16.7548 20.3679 18.272 18.9656L15.3142 16.6668C14.4866 17.2185 13.4368 17.5556 12.1954 17.5556C9.79695 17.5556 7.7663 15.9388 7.03833 13.7549H3.98853V16.1227C5.4981 19.1265 8.60155 21.1955 12.1954 21.1955Z" fill="#34A853"/>
<path d="M7.03831 13.7548C6.84674 13.2031 6.74712 12.6131 6.74712 12C6.74712 11.387 6.8544 10.797 7.03831 10.2453V7.87744H3.9885C3.36015 9.11882 3 10.5135 3 12C3 13.4866 3.36015 14.8813 3.9885 16.1226L7.03831 13.7548Z" fill="#FBBC05"/>
<path d="M12.1954 6.44453C13.5517 6.44453 14.7625 6.91197 15.7203 7.82384L18.341 5.20315C16.7548 3.71657 14.6782 2.80469 12.1954 2.80469C8.60155 2.80469 5.4981 4.87365 3.98853 7.87748L7.03833 10.2453C7.7663 8.06139 9.79695 6.44453 12.1954 6.44453Z" fill="#EA4335"/>
</svg>
