<svg width="20" height="24" viewBox="0 0 20 24" fill="none" xmlns="http://www.w3.org/2000/svg">
<path d="M10 23.4977C9.68676 23.495 9.37755 23.4269 9.09216 23.2978C8.80677 23.1686 8.55149 22.9813 8.34267 22.7478C5.60544 19.7481 1.00091 14.0412 1.00091 10.2691C0.966835 7.84706 1.89541 5.51054 3.5827 3.77263C5.26999 2.03473 7.57804 1.03751 10 1C12.422 1.03751 14.73 2.03473 16.4173 3.77263C18.1046 5.51054 19.0332 7.84706 18.9991 10.2691C18.9991 14.0187 14.3946 19.7106 11.6573 22.7553C11.4478 22.9874 11.1923 23.1733 10.9069 23.3012C10.6215 23.429 10.3127 23.496 10 23.4977ZM10 2.49985C7.97646 2.53928 6.05103 3.37907 4.64542 4.83527C3.23982 6.29148 2.46862 8.2454 2.50075 10.2691C2.50075 12.6238 5.10299 16.9134 9.46005 21.7504C9.53001 21.823 9.61388 21.8807 9.70665 21.9202C9.79943 21.9596 9.8992 21.9799 10 21.9799C10.1008 21.9799 10.2006 21.9596 10.2933 21.9202C10.3861 21.8807 10.47 21.823 10.5399 21.7504C14.897 16.9134 17.4992 12.6238 17.4992 10.2691C17.5314 8.2454 16.7602 6.29148 15.3546 4.83527C13.949 3.37907 12.0235 2.53928 10 2.49985Z" fill="#767676" stroke="#767676" stroke-width="0.3"/>
<path d="M9.99979 14.4986C9.10987 14.4986 8.23993 14.2347 7.49998 13.7403C6.76003 13.2459 6.18331 12.5431 5.84275 11.721C5.50219 10.8988 5.41309 9.99407 5.5867 9.12124C5.76032 8.24842 6.18886 7.44667 6.81813 6.8174C7.44741 6.18813 8.24915 5.75959 9.12198 5.58597C9.9948 5.41236 10.8995 5.50146 11.7217 5.84202C12.5439 6.18258 13.2466 6.7593 13.741 7.49925C14.2354 8.23919 14.4993 9.10913 14.4993 9.99906C14.4993 11.1924 14.0253 12.3369 13.1815 13.1807C12.3376 14.0246 11.1931 14.4986 9.99979 14.4986ZM9.99979 6.99936C9.40651 6.99936 8.82655 7.17529 8.33325 7.5049C7.83995 7.83451 7.45547 8.303 7.22843 8.85113C7.00139 9.39925 6.94199 10.0024 7.05773 10.5843C7.17348 11.1662 7.45917 11.7007 7.87869 12.1202C8.2982 12.5397 8.8327 12.8254 9.41458 12.9411C9.99647 13.0569 10.5996 12.9975 11.1477 12.7704C11.6959 12.5434 12.1643 12.1589 12.494 11.6656C12.8236 11.1723 12.9995 10.5923 12.9995 9.99906C12.9995 9.20349 12.6835 8.44051 12.1209 7.87795C11.5583 7.3154 10.7954 6.99936 9.99979 6.99936Z" fill="#767676" stroke="#767676" stroke-width="0.3"/>
</svg>
