<svg width="20" height="20" viewBox="0 0 20 20" fill="none" xmlns="http://www.w3.org/2000/svg">
<g filter="url(#filter0_d_88_10682)">
<path d="M14.8148 13.3332C15.3773 13.3332 15.8333 12.8772 15.8333 12.3147V5.18502C15.8333 4.62251 15.3773 4.1665 14.8148 4.1665H7.68514C7.12263 4.1665 6.66663 4.62251 6.66663 5.18502" stroke="white" stroke-linecap="round" stroke-linejoin="round"/>
</g>
<g filter="url(#filter1_d_88_10682)">
<path d="M12.3148 6.6665H5.18514C4.62263 6.6665 4.16663 7.12251 4.16663 7.68502V14.8147C4.16663 15.3772 4.62263 15.8332 5.18514 15.8332H12.3148C12.8773 15.8332 13.3333 15.3772 13.3333 14.8147V7.68502C13.3333 7.12251 12.8773 6.6665 12.3148 6.6665Z" fill="white"/>
<path d="M12.3148 6.6665H5.18514C4.62263 6.6665 4.16663 7.12251 4.16663 7.68502V14.8147C4.16663 15.3772 4.62263 15.8332 5.18514 15.8332H12.3148C12.8773 15.8332 13.3333 15.3772 13.3333 14.8147V7.68502C13.3333 7.12251 12.8773 6.6665 12.3148 6.6665Z" stroke="white" stroke-linecap="round" stroke-linejoin="round"/>
</g>
<defs>
<filter id="filter0_d_88_10682" x="4.16663" y="1.6665" width="14.1666" height="14.1665" filterUnits="userSpaceOnUse" color-interpolation-filters="sRGB">
<feFlood flood-opacity="0" result="BackgroundImageFix"/>
<feColorMatrix in="SourceAlpha" type="matrix" values="0 0 0 0 0 0 0 0 0 0 0 0 0 0 0 0 0 0 127 0" result="hardAlpha"/>
<feOffset/>
<feGaussianBlur stdDeviation="1"/>
<feComposite in2="hardAlpha" operator="out"/>
<feColorMatrix type="matrix" values="0 0 0 0 0 0 0 0 0 0 0 0 0 0 0 0 0 0 0.5 0"/>
<feBlend mode="normal" in2="BackgroundImageFix" result="effect1_dropShadow_88_10682"/>
<feBlend mode="normal" in="SourceGraphic" in2="effect1_dropShadow_88_10682" result="shape"/>
</filter>
<filter id="filter1_d_88_10682" x="1.66663" y="4.1665" width="14.1666" height="14.1665" filterUnits="userSpaceOnUse" color-interpolation-filters="sRGB">
<feFlood flood-opacity="0" result="BackgroundImageFix"/>
<feColorMatrix in="SourceAlpha" type="matrix" values="0 0 0 0 0 0 0 0 0 0 0 0 0 0 0 0 0 0 127 0" result="hardAlpha"/>
<feOffset/>
<feGaussianBlur stdDeviation="1"/>
<feComposite in2="hardAlpha" operator="out"/>
<feColorMatrix type="matrix" values="0 0 0 0 0 0 0 0 0 0 0 0 0 0 0 0 0 0 0.5 0"/>
<feBlend mode="normal" in2="BackgroundImageFix" result="effect1_dropShadow_88_10682"/>
<feBlend mode="normal" in="SourceGraphic" in2="effect1_dropShadow_88_10682" result="shape"/>
</filter>
</defs>
</svg>
