<svg width="20" height="24" viewBox="0 0 20 24" fill="none" xmlns="http://www.w3.org/2000/svg">
<path d="M10 23.4977C9.68676 23.495 9.37755 23.4269 9.09216 23.2978C8.80677 23.1686 8.55149 22.9813 8.34267 22.7478C5.60544 19.7481 1.00091 14.0412 1.00091 10.2691C0.966835 7.84706 1.89541 5.51054 3.5827 3.77263C5.26999 2.03473 7.57804 1.03751 10 1C12.422 1.03751 14.73 2.03473 16.4173 3.77263C18.1046 5.51054 19.0332 7.84706 18.9991 10.2691C18.9991 14.0187 14.3946 19.7106 11.6573 22.7553C11.4478 22.9874 11.1923 23.1733 10.9069 23.3012C10.6215 23.429 10.3127 23.496 10 23.4977Z" fill="#3C70BC" stroke="#3C70BC"/>
<path d="M7.49998 13.7403C8.23993 14.2347 9.10987 14.4986 9.99979 14.4986C11.1931 14.4986 12.3376 14.0246 13.1815 13.1807C14.0253 12.3369 14.4993 11.1924 14.4993 9.99906C14.4993 9.10913 14.2354 8.23919 13.741 7.49925C13.2466 6.7593 12.5439 6.18258 11.7217 5.84202C10.8995 5.50146 9.9948 5.41236 9.12198 5.58597C8.24915 5.75959 7.44741 6.18813 6.81813 6.8174C6.18886 7.44667 5.76032 8.24842 5.5867 9.12124C5.41309 9.99407 5.50219 10.8988 5.84275 11.721C6.18331 12.5431 6.76003 13.2459 7.49998 13.7403Z" fill="white"/>
</svg>
