<svg width="25" height="33" viewBox="0 0 25 33" fill="none" xmlns="http://www.w3.org/2000/svg">
<g filter="url(#filter0_d_88_9012)">
<path d="M10.3571 29L9.8023 28.3256C9.4324 27.8351 0 16.8605 0 10.3002C0 4.59832 4.68538 0 10.3571 0C16.0289 0 20.7143 4.65963 20.7143 10.3002C20.7143 16.8605 11.2819 27.8964 10.912 28.3256L10.3571 29Z" fill="#3C70BC"/>
<path d="M10.3584 14.2257C8.20068 14.2257 6.41284 12.4477 6.41284 10.3018C6.41284 8.15596 8.20068 6.37793 10.3584 6.37793C12.5162 6.37793 14.304 8.15596 14.304 10.3018C14.304 12.4477 12.5162 14.2257 10.3584 14.2257Z" fill="white"/>
</g>
<defs>
<filter id="filter0_d_88_9012" x="0" y="0" width="24.7142" height="33" filterUnits="userSpaceOnUse" color-interpolation-filters="sRGB">
<feFlood flood-opacity="0" result="BackgroundImageFix"/>
<feColorMatrix in="SourceAlpha" type="matrix" values="0 0 0 0 0 0 0 0 0 0 0 0 0 0 0 0 0 0 127 0" result="hardAlpha"/>
<feOffset dx="2" dy="2"/>
<feGaussianBlur stdDeviation="1"/>
<feComposite in2="hardAlpha" operator="out"/>
<feColorMatrix type="matrix" values="0 0 0 0 0 0 0 0 0 0 0 0 0 0 0 0 0 0 0.3 0"/>
<feBlend mode="normal" in2="BackgroundImageFix" result="effect1_dropShadow_88_9012"/>
<feBlend mode="normal" in="SourceGraphic" in2="effect1_dropShadow_88_9012" result="shape"/>
</filter>
</defs>
</svg>
